<svg height="512" viewBox="0 0 48 58" width="512" xmlns="http://www.w3.org/2000/svg"><g id="Page-1" fill="none" fill-rule="evenodd"><g id="027---Stopwatch" fill-rule="nonzero"><g fill="#95a5a5"><path id="Shape" d="m39 15.357 2.63-2.63c.977544-.977544 2.562456-.977544 3.54 0s.977544 2.562456 0 3.54l-2.63 2.633z"/><path id="Shape" d="m5.36 18.9-2.63-2.63c-.97754401-.977544-.97754401-2.562456 0-3.54s2.56245599-.977544 3.54 0l2.63 2.63z"/><path id="Shape" d="m27 3.19v8.81c-1.9768145-.4306788-4.0231855-.4306788-6 0v-8.81z"/></g><path id="Shape" d="m48 34c.0078625 10.5564663-6.8830454 19.8786188-16.977497 22.9674841-10.0944517 3.0888652-21.0220362-.7808938-26.92287254-9.5341317-5.90083632-8.7532379-5.38927149-20.3344917 1.26036954-28.5333524 1.04642-1.306419 2.23358097-2.49358 3.54-3.54 3.4681538-2.8248388 7.661371-4.6164862 12.1-5.17 1.9919776-.25333559 4.0080224-.25333559 6 0 4.438629.5535138 8.6318462 2.3451612 12.1 5.17 1.306419 1.04642 2.49358 2.233581 3.54 3.54 3.4736187 4.2651273 5.3670867 9.5993375 5.36 15.1z" fill="#3b97d3"/><path id="Shape" d="m31 2.5c.0021341.66369315-.2605727 1.30081863-.729877 1.77012298-.4693044.46930436-1.1064298.7320111-1.770123.72987702h-9c-1.3807119 0-2.5-1.11928813-2.5-2.5s1.1192881-2.5 2.5-2.5h9c1.3807119 0 2.5 1.11928813 2.5 2.5z" fill="#bdc3c7"/><circle id="Oval" cx="24" cy="34" fill="#f9eab0" r="20"/><path id="Shape" d="m42.23 25.77c-7.5820497-3.4249311-16.4925009-1.7983525-22.3754267 4.0845733s-7.5095044 14.793377-4.0845733 22.3754267c-8.1071117-3.6621099-12.82094855-12.2387792-11.56702724-21.0458213 1.25392132-8.807042 8.17416394-15.7272846 16.98120594-16.9812059 8.8070421-1.2539213 17.3837114 3.4599155 21.0458213 11.5670272z" fill="#f5efca"/><path id="Shape" d="m33.9 43.9c-4.6361408 4.6410745-11.8731962 5.4406537-17.4106798 1.9236025-5.5374837-3.5170512-7.89032372-10.4075114-5.6603885-16.576852 2.2299352-6.1693405 8.4446098-9.963035 14.9510683-9.1267505.34.04.68.1 1.02.17-1.1661605 2.5882175-3.3306259 4.5939554-6 5.56-1.1195616.4432463-2.1369612 1.1101704-2.99 1.96-2.5176983 2.5205755-3.2565131 6.3156061-1.8682598 9.5965904 1.3882534 3.2809844 4.6265541 5.3932139 8.1887732 5.3412486 3.5622192-.0519653 6.737529-2.257756 8.0294866-5.577839.9665011-2.6586797 2.9687593-4.8124601 5.55-5.97.07.34.13.68.17 1.02.5620873 4.3004378-.9089849 8.6175543-3.98 11.68z" fill="#4fba6f"/><path id="Shape" d="m37.71 31.2c-2.5812407 1.1575399-4.5834989 3.3113203-5.55 5.97-1.4522072 3.7322134-5.2521859 6.0028205-9.2269547 5.5133965-3.9747687-.4894241-7.1104197-3.614034-7.613861-7.5870517s1.753748-7.7809819 5.4808157-9.2463448c2.6693741-.9660446 4.8338395-2.9717825 6-5.56.32.07.65.14.97.23 4.709915 1.3133856 8.3917621 4.9914408 9.71 9.7.09.33.16.65.23.98z" fill="#71c285"/><path id="Shape" d="m37.88 32.22c-2.2251509 1.0814629-3.942774 2.9855502-4.79 5.31-1.6241352 4.1432881-5.8497554 6.6590595-10.2662616 6.1121366-4.4165062-.546923-7.9008051-4.0174609-8.465201-8.4317681-.5643959-4.4143073 1.9346341-8.64985 6.0714626-10.2903685 2.3283183-.8623157 4.2411421-2.5784941 5.35-4.8.34.04.68.1 1.02.17.32.07.65.14.97.23-1.2527377 2.9004674-3.6373897 5.1622737-6.6 6.26-2.5886883 1.0163324-4.4353318 3.340561-4.8401958 6.0919832-.4048639 2.7514222.6939956 5.5090731 2.8801958 7.2280168 1.9321741 1.5170426 4.4687396 2.0291862 6.8381529 1.380653 2.3694134-.6485333 4.2915837-2.3810797 5.1818471-4.670653 1.0826573-2.9662728 3.3451809-5.3518777 6.25-6.59.09.33.16.65.23.98s.13.68.17 1.02z" fill="#f9eab0"/><path id="Shape" d="m24 13c-11.5979797 0-21 9.4020203-21 21s9.4020203 21 21 21 21-9.4020203 21-21c-.0132259-11.592497-9.407503-20.9867741-21-21zm1 39.949v-.949c0-.5522847-.4477153-1-1-1s-1 .4477153-1 1v.949c-9.6896379-.5194667-17.42953328-8.2593621-17.949-17.949h.949c.55228475 0 1-.4477153 1-1s-.44771525-1-1-1h-.949c.51946672-9.6896379 8.2593621-17.4295333 17.949-17.949v.949c0 .5522847.4477153 1 1 1s1-.4477153 1-1v-.949c9.6896379.5194667 17.4295333 8.2593621 17.949 17.949h-.949c-.5522847 0-1 .4477153-1 1s.4477153 1 1 1h.949c-.5194667 9.6896379-8.2593621 17.4295333-17.949 17.949z" fill="#bdc3c7"/></g></g></svg>