<?xml version="1.0" encoding="iso-8859-1"?>
<!-- Generator: Adobe Illustrator 19.0.0, SVG Export Plug-In . SVG Version: 6.00 Build 0)  -->
<svg version="1.1" id="Layer_1" xmlns="http://www.w3.org/2000/svg" xmlns:xlink="http://www.w3.org/1999/xlink" x="0px" y="0px"
	 viewBox="0 0 512 512" style="enable-background:new 0 0 512 512;" xml:space="preserve">
<path style="fill:#FFFFFF;" d="M489.739,434.087H22.261C9.966,434.087,0,424.121,0,411.826V100.174
	c0-12.295,9.966-22.261,22.261-22.261h467.478c12.295,0,22.261,9.966,22.261,22.261v311.652
	C512,424.121,502.034,434.087,489.739,434.087z"/>
<path style="fill:#659F00;" d="M91.826,358.957H0V153.043h91.826V358.957z M489.739,77.913H22.261C9.966,77.913,0,87.879,0,100.174
	v36.174h512v16.696h-91.826v205.913H512v16.696H0v36.174c0,12.295,9.966,22.261,22.261,22.261h467.478
	c12.295,0,22.261-9.966,22.261-22.261V100.174C512,87.879,502.034,77.913,489.739,77.913z M403.478,153.043H108.522v94.609h294.957
	V153.043z M108.522,358.957h294.957v-94.609H108.522V358.957z"/>
<g>
</g>
<g>
</g>
<g>
</g>
<g>
</g>
<g>
</g>
<g>
</g>
<g>
</g>
<g>
</g>
<g>
</g>
<g>
</g>
<g>
</g>
<g>
</g>
<g>
</g>
<g>
</g>
<g>
</g>
</svg>
