<svg height="511pt" viewBox="1 0 511.99962 511" width="511pt" xmlns="http://www.w3.org/2000/svg"><path d="m512 255.980469c0 141.097656-114.382812 255.480469-255.480469 255.480469-37.6875 0-73.453125-8.152344-105.65625-22.792969-11.886719-5.414063-23.285156-11.699219-34.121093-18.792969-.46875-.3125-.9375-.613281-1.40625-.925781-3.429688-2.273438-6.796876-4.632813-10.105469-7.070313-3.960938-2.921875-7.839844-5.957031-11.625-9.105468-56.550781-46.851563-92.566407-117.613282-92.566407-196.792969 0-141.097657 114.378907-255.480469 255.480469-255.480469 141.097657 0 255.480469 114.382812 255.480469 255.480469zm0 0" fill="#1da2dd"/><path d="m382.378906 449.167969v29.1875c-37.144531 21.074219-80.097656 33.109375-125.863281 33.109375-26.976563 0-52.964844-4.183594-77.375-11.929688-16.996094-5.390625-33.234375-12.523437-48.488281-21.179687v-29.1875c0-49.8125 38.363281-90.679688 87.175781-94.621094 2.566406-.210937 5.152344-.3125 7.769531-.3125h61.824219c7.3125 0 14.421875.8125 21.253906 2.375 42.210938 9.65625 73.703125 47.4375 73.703125 92.558594zm0 0" fill="#dd104f"/><path d="m382.378906 449.167969v29.1875c-37.144531 21.074219-80.097656 33.109375-125.863281 33.109375-26.976563 0-52.964844-4.183594-77.375-11.929688v-50.367187c0-52.429688 42.515625-94.933594 94.957031-94.933594h13.324219c52.453125 0 94.957031 42.503906 94.957031 94.933594zm0 0" fill="#f71c55"/><g fill="#dd104f"><path d="m248.175781 378.746094h16.683594v67.625h-16.683594zm0 0"/><path d="m256.507812 393.097656-42.742187 23.753906-13.003906-60.480468 26.558593-15.640625"/><path d="m256.507812 393.097656 42.742188 23.753906 13.003906-60.480468-26.558594-15.640625"/></g><path d="m290.386719 317.660156v41.570313c0 15.21875-10.035157 28.082031-23.855469 32.355469-3.164062.980468-6.539062 1.511718-10.023438 1.511718-18.707031 0-33.871093-15.164062-33.871093-33.867187v-41.570313zm0 0" fill="#eaa27f"/><path d="m290.386719 356.597656v2.632813c0 15.21875-10.035157 28.082031-23.855469 32.355469-12.472656-3.835938-21.847656-14.679688-23.582031-27.945313 2.265625.136719 4.539062.207031 6.824219.207031 6.410156 0 12.691406-.507812 18.8125-1.511718 7.539062-1.214844 14.828124-3.152344 21.800781-5.738282zm0 0" fill="#f6ba97"/><path d="m163.59375 249.53125c0 15.679688-11.457031 28.683594-26.457031 31.09375-1.640625.265625-3.324219.40625-5.046875.40625-17.402344 0-31.5-14.101562-31.5-31.5 0-17.402344 14.097656-31.503906 31.5-31.503906 1.722656 0 3.40625.140625 5.046875.40625 15 2.410156 26.457031 15.414062 26.457031 31.097656zm0 0" fill="#f6ba97"/><path d="m163.59375 249.53125c0 15.679688-11.457031 28.683594-26.457031 31.09375-2.726563-9.90625-4.179688-20.335938-4.179688-31.09375 0-10.761719 1.453125-21.191406 4.179688-31.097656 15 2.410156 26.457031 15.414062 26.457031 31.097656zm0 0" fill="#eaa27f"/><path d="m143.347656 249.53125c0 6.214844-5.039062 11.257812-11.257812 11.257812s-11.257813-5.042968-11.257813-11.257812c0-6.21875 5.039063-11.261719 11.257813-11.261719s11.257812 5.042969 11.257812 11.261719zm0 0" fill="#eaa27f"/><path d="m349.429688 249.53125c0 15.679688 11.457031 28.683594 26.457031 31.09375 1.640625.265625 3.324219.40625 5.046875.40625 17.402344 0 31.5-14.101562 31.5-31.5 0-17.402344-14.097656-31.503906-31.5-31.503906-1.722656 0-3.40625.140625-5.046875.40625-15 2.410156-26.457031 15.414062-26.457031 31.097656zm0 0" fill="#f6ba97"/><path d="m349.429688 249.53125c0 15.679688 11.457031 28.683594 26.457031 31.09375 2.722656-9.90625 4.179687-20.335938 4.179687-31.09375 0-10.761719-1.453125-21.191406-4.179687-31.097656-15 2.410156-26.457031 15.414062-26.457031 31.097656zm0 0" fill="#eaa27f"/><path d="m373.714844 188.160156v44.628906c0 58.324219-42.605469 106.707032-98.394532 115.6875-.1875.03125-.386718.0625-.574218.09375-5.933594.949219-12.023438 1.417969-18.238282 1.417969-64.726562 0-117.199218-52.472656-117.199218-117.199219v-44.628906c0-13.628906 2.328125-26.726562 6.621094-38.898437 16.03125-45.609375 59.492187-78.3125 110.578124-78.3125h.011719c6.203125 0 12.304688.480469 18.246094 1.417969 56.0625 8.761718 98.949219 57.269531 98.949219 115.792968zm0 0" fill="#eaa27f"/><path d="m392.191406 249.53125c0 6.214844-5.039062 11.257812-11.257812 11.257812s-11.261719-5.042968-11.261719-11.257812c0-6.21875 5.042969-11.261719 11.261719-11.261719s11.257812 5.042969 11.257812 11.261719zm0 0" fill="#eaa27f"/><path d="m373.714844 188.160156v44.628906c0 58.324219-42.605469 106.707032-98.394532 115.6875-.1875.03125-.386718.0625-.574218.09375-56.058594-8.761718-98.9375-57.269531-98.9375-115.78125v-44.628906c0-58.523437 42.886718-107.03125 98.957031-115.792968 56.0625 8.761718 98.949219 57.269531 98.949219 115.792968zm0 0" fill="#f6ba97"/><path d="m231.550781 225.964844c0 7.34375-5.953125 13.296875-13.292969 13.296875-7.34375 0-13.296874-5.953125-13.296874-13.296875s5.953124-13.296875 13.296874-13.296875c7.339844 0 13.292969 5.953125 13.292969 13.296875zm0 0" fill="#2f373b"/><path d="m308.066406 225.964844c0 7.34375-5.953125 13.296875-13.296875 13.296875s-13.296875-5.953125-13.296875-13.296875 5.953125-13.296875 13.296875-13.296875 13.296875 5.953125 13.296875 13.296875zm0 0" fill="#2f373b"/><path d="m228.839844 223.617188c0 3.148437-2.550782 5.699218-5.695313 5.699218-3.148437 0-5.695312-2.550781-5.695312-5.699218 0-3.144532 2.546875-5.695313 5.695312-5.695313 3.144531 0 5.695313 2.550781 5.695313 5.695313zm0 0" fill="#fff"/><path d="m306.007812 223.617188c0 3.148437-2.550781 5.699218-5.699218 5.699218-3.144532 0-5.695313-2.550781-5.695313-5.699218 0-3.144532 2.550781-5.695313 5.695313-5.695313 3.148437 0 5.699218 2.550781 5.699218 5.695313zm0 0" fill="#fff"/><path d="m269.808594 259.441406h-26.589844c-3.167969 0-5.734375-2.570312-5.734375-5.738281s2.566406-5.734375 5.734375-5.734375h26.589844c3.167968 0 5.734375 2.566406 5.734375 5.734375s-2.566407 5.738281-5.734375 5.738281zm0 0" fill="#eaa27f"/><path d="m256.511719 290.511719c-9.8125 0-19.625-2.457031-28.574219-7.375-2.523438-1.386719-3.441406-4.558594-2.054688-7.082031 1.386719-2.523438 4.558594-3.445313 7.078126-2.058594 14.75 8.109375 32.355468 8.109375 47.101562 0 2.523438-1.386719 5.695312-.464844 7.082031 2.058594 1.386719 2.523437.464844 5.695312-2.058593 7.082031-8.945313 4.914062-18.757813 7.375-28.574219 7.375zm0 0" fill="#eaa27f"/><path d="m373.714844 116.53125h-234.34375c-12.15625-25.027344 18.105468-80.296875 117.167968-80.296875 11.105469 0 21.347657.699219 30.761719 1.972656 74.558594 10.042969 97.207031 56.101563 86.414063 78.324219zm0 0" fill="#151a1c"/><path d="m373.714844 116.53125h-172.816406c-10.792969-22.222656 11.84375-68.28125 86.402343-78.324219 74.558594 10.042969 97.207031 56.101563 86.414063 78.324219zm0 0" fill="#2f373b"/><path d="m165.796875 140.085938v59.867187l-26.488281 17.078125v-28.871094c0-13.628906 2.328125-26.726562 6.621094-38.898437zm0 0" fill="#151a1c"/><path d="m347.230469 140.085938v59.867187l26.484375 17.078125v-28.871094c0-13.628906-2.324219-26.726562-6.621094-38.898437zm0 0" fill="#2f373b"/><path d="m373.714844 116.53125v50.050781c-53.742188-22.261719-112.242188-28.570312-168.6875-18.933593-5.140625.875-10.261719 1.875-15.363282 3.023437-17.078124 3.816406-33.898437 9.125-50.292968 15.910156v-50.050781c16.394531-6.789062 33.214844-12.097656 50.292968-15.914062 5.101563-1.148438 10.222657-2.148438 15.363282-3.023438 56.445312-9.636719 114.945312-3.328125 168.6875 18.9375zm0 0" fill="#f2efea"/><path d="m177.863281 449.167969v49.957031c-16.539062-5.347656-32.339843-12.335938-47.207031-20.769531v-29.1875zm0 0" fill="#eaa27f"/><path d="m382.382812 449.167969v29.1875c-14.871093 8.433593-30.667968 15.421875-47.207031 20.769531v-49.957031zm0 0" fill="#f6ba97"/><path d="m189.664062 100.617188v50.054687c-17.078124 3.816406-33.898437 9.125-50.292968 15.910156v-50.050781c16.394531-6.789062 33.214844-12.097656 50.292968-15.914062zm0 0" fill="#d8d4ce"/><path d="m278.179688 94c31.144531 0 54.609374 50.5 31.144531 73.960938 0 0 57.769531-18.699219 39.105469-75.074219" fill="#2f373b"/><path d="m174.542969 222.972656-27.394531 3.1875-2.214844-19.054687 27.128906-3.15625c1.707031-.199219 2.929688-1.746094 2.734375-3.453125-.199219-1.707032-1.746094-2.929688-3.453125-2.734375l-27.128906 3.160156-2.21875-19.054687 27.394531-3.1875c1.707031-.199219 2.929687-1.746094 2.734375-3.453126-.199219-1.707031-1.746094-2.933593-3.453125-2.734374l-27.394531 3.1875-2.21875-19.050782 18.234375-2.125c1.707031-.199218 2.929687-1.742187 2.734375-3.453125-.199219-1.707031-1.746094-2.929687-3.453125-2.730469l-18.234375 2.121094-2.042969-17.554687 3.625-.425781c1.710937-.199219 2.933594-1.742188 2.734375-3.449219-.199219-1.710938-1.746094-2.933594-3.453125-2.734375l-3.625.421875-1.046875-8.976563c-.199219-1.710937-1.742188-2.933594-3.449219-2.734375-1.710937.199219-2.933593 1.742188-2.734375 3.453125l1.042969 8.976563-19.050781 2.21875-2.972656-25.523438c-.199219-1.710937-1.742188-2.933593-3.453126-2.734375-1.707031.199219-2.929687 1.742188-2.730468 3.453125l2.96875 25.523438-19.054688 2.214843-3.996094-34.335937c-.199218-1.707031-1.746093-2.929687-3.453124-2.734375-1.707032.199219-2.929688 1.746094-2.730469 3.453125l3.992187 34.339844-19.050781 2.214843-2.972656-25.523437c-.199219-1.707031-1.742188-2.929687-3.449219-2.734375-1.710938.199219-2.933594 1.746094-2.734375 3.453125l2.96875 25.523437-19.054687 2.21875-1.042969-8.980468c-.199219-1.707032-1.746094-2.929688-3.453125-2.730469-1.707032.199219-2.933594 1.742187-2.734375 3.453125l1.046875 8.976562-3.628906.421876c-1.707032.199218-2.929688 1.746093-2.730469 3.453124.199219 1.707032 1.742187 2.933594 3.453125 2.734376l3.625-.421876 2.042968 17.554688-18.234374 2.121094c-1.707032.199218-2.929688 1.746094-2.730469 3.453125s1.742187 2.929687 3.453125 2.734375l18.230468-2.121094 2.21875 19.050781-27.394531 3.1875c-1.707031.199219-2.929687 1.746094-2.734375 3.453125.199219 1.710938 1.746094 2.933594 3.453125 2.734375l27.394531-3.1875 2.214844 19.054688-27.128906 3.15625c-1.707031.199219-2.929688 1.742187-2.734375 3.453125.199219 1.707031 1.746094 2.929687 3.453125 2.730468l27.128906-3.15625 2.21875 19.054688-27.394531 3.1875c-1.707031.199219-2.929687 1.746094-2.730469 3.453125.199219 1.707031 1.742188 2.929687 3.453125 2.734375l27.390625-3.1875 2.21875 19.050781-18.234375 2.121094c-1.707031.199219-2.929687 1.746094-2.730469 3.453125.199219 1.707031 1.742188 2.933594 3.453126 2.734375l18.230468-2.121094 2.042969 17.554688-3.625.421875c-1.710937.199218-2.933594 1.746094-2.734375 3.453125.199219 1.710937 1.746094 2.933593 3.453125 2.734375l3.625-.421875 1.046875 8.976562c.199219 1.707031 1.742188 2.929688 3.449219 2.734375 1.710937-.199218 2.933593-1.746094 2.734375-3.453125l-1.042969-8.976562 19.054687-2.21875 2.96875 25.523437c.199219 1.707032 1.746094 2.929688 3.453126 2.734375 1.707031-.199219 2.929687-1.746093 2.730468-3.453125l-2.96875-25.523437 19.054688-2.21875 3.996094 34.339843c.199218 1.707032 1.746093 2.929688 3.453124 2.730469 1.707032-.199219 2.929688-1.742187 2.730469-3.449219l-3.996093-34.339843 19.058593-2.214844 2.96875 25.523437c.199219 1.707032 1.742188 2.929688 3.453125 2.730469 1.707032-.199219 2.929688-1.742187 2.730469-3.453125l-2.96875-25.523437 19.054687-2.214844 1.042969 8.976563c.199219 1.707031 1.746094 2.929687 3.453125 2.734374 1.707032-.199218 2.933594-1.746093 2.734375-3.453124l-1.046875-8.976563 3.628906-.421875c1.707032-.199219 2.929688-1.746094 2.730469-3.453125-.199219-1.710937-1.742187-2.933594-3.453125-2.734375l-3.625.421875-2.042968-17.554687 18.234374-2.125c1.707032-.199219 2.933594-1.742188 2.734376-3.449219-.199219-1.710938-1.746094-2.933594-3.453126-2.734375l-18.234374 2.121094-2.214844-19.054688 27.394531-3.1875c1.707031-.199219 2.929687-1.742188 2.730469-3.453125-.199219-1.707031-1.746094-2.929687-3.453125-2.730469zm-33.578125 3.90625-19.054688 2.21875-2.21875-19.054687 19.054688-2.21875zm-50.167969-45.324218-2.21875-19.054688 19.054687-2.21875 2.21875 19.054688zm19.773437 3.96875 2.21875 19.050781-19.054687 2.21875-2.21875-19.054688zm-25.960937-3.25-19.050781 2.214843-2.21875-19.050781 19.054687-2.21875zm.722656 6.183593 2.214844 19.054688-19.050781 2.21875-2.21875-19.054688zm2.9375 25.242188 2.214844 19.054687-19.054687 2.214844-2.214844-19.054688zm2.933594 25.238281 2.21875 19.054688-19.054687 2.214843-2.214844-19.050781zm6.1875-.71875 19.054687-2.21875 2.214844 19.054688-19.054687 2.21875zm-.71875-6.1875-2.21875-19.050781 19.054687-2.21875 2.21875 19.054687zm41.355469-30.390625-19.054688 2.214844-2.214844-19.050781 19.050782-2.21875zm-2.9375-25.242187-19.054688 2.21875-2.214844-19.054688 19.054688-2.214844zm-4.980469-42.792969 2.042969 17.554687-19.054688 2.21875-2.039062-17.558594zm-25.238281 2.933593 2.042968 17.558594-19.054687 2.214844-2.042969-17.554688zm-25.238282 2.9375 2.042969 17.558594-19.054687 2.214844-2.042969-17.554688zm-44.296874 5.15625 19.054687-2.21875 2.042969 17.558594-19.054688 2.214844zm2.765624 23.742188 19.054688-2.21875 2.214844 19.054688-19.054688 2.214843zm2.9375 25.238281 19.054688-2.21875 2.214844 19.054688-19.054688 2.21875zm2.933594 25.238281 19.054688-2.214843 2.21875 19.054687-19.054688 2.214844zm2.9375 25.242188 19.054688-2.21875 2.21875 19.054688-19.054688 2.214843zm4.980469 42.792969-2.042969-17.554688 19.054688-2.21875 2.042968 17.558594zm25.242187-2.933594-2.042968-17.558594 19.050781-2.214843 2.042969 17.554687zm25.238282-2.9375-2.042969-17.558594 19.054687-2.214843 2.042969 17.554687zm44.292968-5.15625-19.054687 2.21875-2.042969-17.558594 19.054688-2.214843zm-2.761718-23.742187-19.054688 2.21875-2.21875-19.054688 19.054688-2.214844zm0 0" fill="#f2efea"/><path d="m157.457031 133.800781c-3.601562-5.386719-7.558593-10.429687-11.847656-15.058593-19.722656-21.28125-44.074219-31.429688-68.582031-28.574219-24.511719 2.851562-45.882813 18.316406-60.183594 43.554687-3.417969 6.039063-6.335938 12.472656-8.738281 19.21875-7.28125 20.46875-9.769531 43.773438-7.007813 67.492188 3.671875 31.527344 16.175782 60.214844 35.230469 80.777344 8.160156 8.808593 17.113281 15.699218 26.546875 20.558593l3.460938 3.5c20.097656 20.339844 33.347656 47.140625 37.308593 75.453125l.917969 6.609375c.421875 3.015625 3.175781 5.144531 6.199219 4.792969l7.363281-.855469c1.511719-.175781 2.882812-.957031 3.808594-2.164062.921875-1.210938 1.3125-2.738281 1.085937-4.242188-4.773437-31.527343 1.859375-63.605469 18.675781-90.640625 9.011719-7.15625 16.929688-16.570312 23.398438-27.996094 13.824219-24.386718 19.417969-55.179687 15.746094-86.710937-2.839844-24.429687-10.996094-47.15625-23.382813-65.714844zm-47.042969 245.199219c-5.25-18.050781-14.019531-35.039062-25.679687-49.789062.007813 0 .019531.003906.027344.003906 6.640625 1.148437 13.394531 1.355468 20.152343.570312 6.320313-.738281 12.441407-2.316406 18.28125-4.6875.007813-.003906.015626-.007812.023438-.007812-7.703125 17-12.054688 35.296875-12.804688 53.910156zm54.078126-174.171875c.605468 6.496094.78125 12.9375.519531 19.253906-.082031 2.121094-.21875 4.230469-.40625 6.3125-.574219 6.765625-1.65625 13.355469-3.226563 19.691407-.53125 2.1875-1.128906 4.351562-1.785156 6.476562-1.84375 6.027344-4.152344 11.796875-6.90625 17.226562-.242188.488282-.496094.976563-.75 1.457032-.476562.90625-.960938 1.804687-1.464844 2.6875-.78125 1.382812-1.589844 2.726562-2.417968 4.03125-.195313.304687-.386719.601562-.578126.898437-4.96875 7.628907-10.742187 13.957031-17.117187 18.835938-1.882813 1.453125-3.820313 2.769531-5.8125 3.957031-5.800781 3.46875-12.011719 5.828125-18.5 6.96875-1.019531.1875-2.042969.335938-3.082031.457031-1.039063.121094-2.066406.210938-3.101563.261719-6.582031.378906-13.164062-.492188-19.605469-2.539062-2.214843-.695313-4.402343-1.53125-6.566406-2.503907-7.324218-3.289062-14.398437-8.128906-20.988281-14.417969-.25-.242187-.507813-.484374-.757813-.734374-1.105468-1.082032-2.203124-2.199219-3.28125-3.367188-.691406-.746094-1.371093-1.507812-2.042968-2.28125-.363282-.414062-.722656-.832031-1.074219-1.257812-3.925781-4.648438-7.492187-9.730469-10.671875-15.171876-1.132812-1.914062-2.207031-3.890624-3.230469-5.890624-2.980469-5.8125-5.542969-11.976563-7.660156-18.425782-.667969-1.988281-1.273437-4.011718-1.84375-6.050781-1.703125-6.089844-3.015625-12.394531-3.90625-18.859375-.160156-1.113281-.304687-2.234375-.4375-3.359375-.109375-.9375-.210937-1.886719-.292969-2.824219-.636718-6.492187-.828125-12.921875-.59375-19.238281.074219-2.121094.199219-4.230469.371094-6.316406.554688-6.746094 1.605469-13.335938 3.128906-19.679688.53125-2.1875 1.117188-4.34375 1.761719-6.472656 1.875-6.234375 4.234375-12.195313 7.078125-17.792969.140625-.292968.292969-.585937.449219-.875.566406-1.109375 1.15625-2.195312 1.765625-3.273437.492187-.867188.992187-1.714844 1.507812-2.546875.179688-.308594.359375-.605469.546875-.894532.3125-.507812.625-.996093.941407-1.488281 4.976562-7.632812 10.746093-13.960937 17.121093-18.84375 1.882813-1.445312 3.820313-2.761719 5.808594-3.949219 5.804687-3.46875 12.015625-5.828124 18.5-6.972656 1.023437-.183594 2.046875-.332031 3.082031-.453125 1.039063-.121093 2.070313-.210937 3.105469-.261719 6.578125-.378906 13.167969.484376 19.609375 2.535157 2.207031.699219 4.398438 1.535156 6.558594 2.511719 7.328125 3.285156 14.402344 8.125 20.992187 14.414062.347657.332031.691407.667969 1.03125 1.007812.074219.066407.148438.144532.222657.21875.9375.921876 1.859374 1.886719 2.78125 2.875.84375.910157 1.664062 1.832032 2.472656 2.78125.21875.246094.4375.5.648437.757813 4.042969 4.796875 7.710938 10.050781 10.972657 15.6875 1.113281 1.921875 2.179687 3.886719 3.191406 5.890625 2.945312 5.820312 5.480468 11.988281 7.574218 18.433594.648438 1.992187 1.253907 4.015625 1.816407 6.054687 1.675781 6.097657 2.957031 12.40625 3.835937 18.867188.128906.9375.25 1.882812.359375 2.824219.128907 1.128906.25 2.246093.347657 3.367187zm0 0" fill="#ffd833"/><path d="m135.828125 466.175781c-.242187.050781-.480469.101563-.730469.144531-3.816406.742188-7.664062 1.34375-11.535156 1.8125-2.074219.261719-4.160156.480469-6.246094.660157-.65625.050781-1.3125.113281-1.980468.15625-3.429688-2.273438-6.796876-4.632813-10.105469-7.070313l-5.847657-50.292968c-.449218-3.777344 1.4375-7.289063 4.503907-9.113282 1.09375-.660156 2.347656-1.097656 3.691406-1.253906l11.136719-1.300781c1.273437-.148438 2.523437-.023438 3.679687.3125 3.503907 1.011719 6.238281 4.042969 6.6875 7.890625l2.125 18.292968zm0 0" fill="#2f373b"/><path d="m150.863281 488.667969c-11.886719-5.414063-23.285156-11.699219-34.121093-18.792969-8.039063-5.265625-15.765626-10.96875-23.136719-17.101562-.835938-13.191407 8.300781-25.246094 21.625-27.738282 3.441406-.644531 6.851562-.59375 10.085937.054688 3.554688.699218 6.890625 2.117187 9.832032 4.140625 5.609374 3.847656 9.761718 9.820312 11.117187 17.039062l5.472656 29.175781c.855469 4.578126.492188 9.09375-.875 13.222657zm0 0" fill="#eaa27f"/><path d="m150.863281 488.667969c-11.886719-5.414063-23.285156-11.699219-34.121093-18.792969l-3.273438-17.453125c-2.0625-10.992187 2.960938-21.671875 11.847656-27.332031 3.554688.699218 6.890625 2.117187 9.832032 4.140625 5.609374 3.847656 9.761718 9.820312 11.117187 17.039062l5.472656 29.175781c.855469 4.578126.492188 9.09375-.875 13.222657zm0 0" fill="#f6ba97"/></svg>