<svg id="icons" enable-background="new 0 0 64 64" height="512" viewBox="0 0 64 64" width="512" xmlns="http://www.w3.org/2000/svg"><g><path d="m32 26c-.553 0-1-.447-1-1v-3.008c0-.553.447-1 1-1s1 .447 1 1v3.008c0 .553-.447 1-1 1z" fill="#656d78"/><g><path d="m53 29.998v1.999l-2 1.001h-38l-2-1.001v-1.999z" fill="#656d78"/><path d="m51 25v1.998h-38v-1.998h19z" fill="#e6e9ed"/><path d="m13 26.998h38l2 3h-42z" fill="#545c66"/><path d="m59 51.999c0-1.1.9-2 2-2 1.11 0 2 .561 2 2v3h-12v-3c0-1.1.9-2 2-2 1.11 0 2 .9 2 2v-1c0-1.1.9-2 2-2 1.11 0 2 .9 2 2z" fill="#a0d468"/><path d="m40 50.998h4v-11h-4zm7 3h-10v-17h10z" fill="#844747"/><path d="m18 44.998c.77 0 1.47-.28 2-.77v3.77h-3v-3z" fill="#545c66"/><path d="m33 36.998v8h-1c-.771 0-1.46-.28-2-.77-.61-.54-1-1.341-1-2.23v-5z" fill="#656d78"/><path d="m33 44.998v3h-3v-3.77c.54.489 1.229.77 2 .77z" fill="#545c66"/><path d="m30 44.229v3.77h-10v-3.77c.62-.54 1-1.341 1-2.23v-5h8v5c0 .889.39 1.689 1 2.23z" fill="#5d9cec"/><path d="m21 36.998v5c0 .89-.38 1.69-1 2.23-.53.489-1.23.77-2 .77h-1v-8z" fill="#656d78"/><path d="m51 50.998v3h-4v-17h-10v17h-24v-3-18h38zm-18-3v-3-8h-4-8-4v8 3h3 10z" fill="#e6e9ed"/><path d="m13 54.999h-12v-3c0-1.1.9-2 2-2 1.11 0 2 .9 2 2v-1c0-1.1.9-2 2-2 1.11 0 2 .9 2 2v1c0-1.1.9-2 2-2 1.11 0 2 .561 2 2z" fill="#a0d468"/><g><path d="m46.501 54.997h-9.001c-.553 0-1-.447-1-1v-16.499c0-.553.447-1 1-1h9.001c.553 0 1 .447 1 1v16.499c0 .553-.447 1-1 1zm-8.001-2h7.001v-14.499h-7.001z" fill="#844747"/></g><g><path d="m49.999 26h-35.998c-.553 0-1-.447-1-1s.447-1 1-1h35.998c.553 0 1 .447 1 1s-.447 1-1 1z" fill="#e6e9ed"/></g><g><path d="m51.999 32.998h-39.998c-.553 0-1-.447-1-1s.447-1 1-1h39.998c.553 0 1 .447 1 1s-.447 1-1 1z" fill="#656d78"/></g><path d="m44 39h-4c-.553 0-1 .447-1 1v10c0 .553.447 1 1 1h4c.553 0 1-.447 1-1v-10c0-.553-.447-1-1-1z" fill="#965353"/><g><path d="m18 46.001c-.553 0-1-.447-1-1s.447-1 1-1c1.103 0 2-.897 2-2 0-.553.447-1 1-1s1 .447 1 1c0 2.206-1.794 4-4 4z" fill="#656d78"/></g><g><path d="m32 46.001c-2.206 0-4-1.794-4-4 0-.553.447-1 1-1s1 .447 1 1c0 1.103.897 2 2 2 .553 0 1 .447 1 1s-.447 1-1 1z" fill="#656d78"/></g><g><path d="m63 54.997h-62c-.553 0-1-.447-1-1s.447-1 1-1h62c.553 0 1 .447 1 1s-.447 1-1 1z" fill="#545c66"/></g><g fill="#656d78"><path d="m20 36.998h2v5.003h-2z"/><path d="m28 36.998h2v5.003h-2z"/><path d="m17 44.229h1v1.772h-1z"/><path d="m32 44.229h1v1.772h-1z"/></g><path d="m17 48.499h15.998c.275 0 .5-.225.5-.5v-11.001c0-.275-.225-.5-.5-.5h-15.998c-.275 0-.5.225-.5.5v11.001c0 .275.225.5.5.5zm.5-11.001h14.998v10.001h-14.998z" fill="#fff"/></g><path d="m35 9.681c-.91-.439-1.93-.68-3-.68-1.08 0-2.09.24-3 .68-2.37 1.12-4 3.53-4 6.32 0 3.87 3.13 7 7 7 3.86 0 7-3.13 7-7 0-2.79-1.64-5.2-4-6.32z" fill="#8cc152"/><path d="m35.998 16.001v-5.729c-.316-.22-.646-.424-.998-.591-.32-.154-.657-.274-1.002-.378v6.698c0 1.103-.897 2-2 2s-2-.897-2-2v-6.698c-.343.103-.679.223-.998.378-.354.167-.685.371-1.002.593v5.728c0 2.206 1.794 4 4 4s4-1.795 4-4.001z" fill="#a0d468"/></g></svg>